<?xml version="1.0" encoding="UTF-8"?>
<svg xmlns="http://www.w3.org/2000/svg" viewBox="0 0 1600 1100" preserveAspectRatio="xMinYMax slice">
  <title>Tailor Background — Chevrons</title>
  <rect width="100%" height="100%" fill="#082537"/>
  <g stroke="#2B5773" stroke-width="1.5" fill="none" stroke-linejoin="miter" opacity="1">
    <polyline points="0,1020 80,1060 0,1100"/>
    <polyline points="0,980 120,1040 0,1100"/>
    <polyline points="0,940 160,1020 0,1100"/>
    <polyline points="0,900 200,1000 0,1100"/>
    <polyline points="0,860 240,980 0,1100"/>
    <polyline points="0,820 280,960 0,1100"/>
    <polyline points="0,780 320,940 0,1100"/>
    <polyline points="0,740 360,920 0,1100"/>
    <polyline points="0,700 400,900 0,1100"/>
    <polyline points="0,660 440,880 0,1100"/>
    <polyline points="0,620 480,860 0,1100"/>
    <polyline points="0,580 520,840 0,1100"/>
    <polyline points="0,540 560,820 0,1100"/>
    <polyline points="0,500 600,800 0,1100"/>
    <polyline points="0,460 640,780 0,1100"/>
    <polyline points="0,420 680,760 0,1100"/>
    <polyline points="0,380 720,740 0,1100"/>
    <polyline points="0,340 760,720 0,1100"/>
    <polyline points="0,300 800,700 0,1100"/>
    <polyline points="0,260 840,680 0,1100"/>
    <polyline points="0,220 880,660 0,1100"/>
    <polyline points="0,180 920,640 0,1100"/>
    <polyline points="0,140 960,620 0,1100"/>
    <polyline points="0,100 1000,600 0,1100"/>
    <polyline points="0,60 1040,580 0,1100"/>
  </g>
</svg>
